<svg xmlns="http://www.w3.org/2000/svg" width="103.5" height="73.223" viewBox="0 0 103.5 73.223">
  <g id="Group_40" data-name="Group 40" transform="translate(-82.463 -555.877)">
    <path id="Path_119" data-name="Path 119" d="M24.444,0A24.444,24.444,0,1,1,0,24.444,24.444,24.444,0,0,1,24.444,0Z" transform="translate(137.074 555.877)" fill="olive" opacity="0.5"/>
    <g id="Group_38" data-name="Group 38" transform="translate(86.463 568.114)">
      <path id="Path_115" data-name="Path 115" d="M4757.023,2209.167H4691.76s-6.679.719-6.524,7.776c.06,2.69.147,9.48.245,17.615.133,11.225.271,24.753.271,24.753s-.21,6.841,7.956,6.841,75.509-.572,75.509-.572,7.224-.433,7.367-6.269,0-42.368,0-42.368" transform="translate(-4685.234 -2209.167)" fill="none" stroke="#fff" stroke-linecap="round" stroke-width="8"/>
      <path id="Path_116" data-name="Path 116" d="M4737.518,2239.944l42.518,35.593,25.91-22.937" transform="translate(-4734.41 -2238.179)" fill="none" stroke="#fff" stroke-linecap="round" stroke-linejoin="round" stroke-width="8"/>
      <path id="Path_117" data-name="Path 117" d="M4768.233,2251l-30.912,26.655" transform="translate(-4734.69 -2222.508)" fill="none" stroke="#fff" stroke-width="8"/>
      <path id="Path_118" data-name="Path 118" d="M4759.565,2251l30.151,26.192" transform="translate(-4702.031 -2222.508)" fill="none" stroke="#fff" stroke-width="8"/>
    </g>
  </g>
</svg>
