<svg xmlns="http://www.w3.org/2000/svg" width="104.789" height="93.34" viewBox="0 0 104.789 93.34">
  <g id="Group_35" data-name="Group 35" transform="translate(-174.462 -510.534)">
    <path id="Path_111" data-name="Path 111" d="M28.635,0A28.635,28.635,0,1,1,0,28.635,28.635,28.635,0,0,1,28.635,0Z" transform="translate(174.462 512.796)" fill="olive" opacity="0.5"/>
    <path id="Path_110" data-name="Path 110" d="M4696.768,2206.443c-1.448,46.531,33.479,59.107,33.479,59.107s28.688,9.065,25.461-11.127-11.616-12.856-11.616-12.856-5.352,5.832-17.071-1.038-11.679-21.51-11.679-21.51,12.71-7.617,10.517-15.518-4.1-9.811-4.1-9.811a12.086,12.086,0,0,0-8.962-4.009" transform="translate(-4508.501 -1667.711)" fill="none" stroke="#fff" stroke-linecap="round" stroke-width="8"/>
    <path id="Path_112" data-name="Path 112" d="M0,0S11.491,2.6,18.492,12.7a26.93,26.93,0,0,1,4.5,14.885" transform="translate(235.112 528.484) rotate(9)" fill="none" stroke="#fff" stroke-linecap="round" stroke-width="8"/>
    <path id="Path_113" data-name="Path 113" d="M0,0S16.046,3.636,25.821,17.733C29.2,22.591,31.9,29.568,32.1,38.518" transform="translate(242.756 516.009) rotate(9)" fill="none" stroke="#fff" stroke-linecap="round" stroke-width="8"/>
    <path id="Path_114" data-name="Path 114" d="M0,0A21.227,21.227,0,0,1,11.573,7.947a16.87,16.87,0,0,1,2.813,9.315" transform="translate(228.79 539.996) rotate(9)" fill="none" stroke="#fff" stroke-linecap="round" stroke-width="8"/>
  </g>
</svg>
