<?xml version="1.0" standalone="no"?>
<!DOCTYPE svg PUBLIC "-//W3C//DTD SVG 20010904//EN"
 "http://www.w3.org/TR/2001/REC-SVG-20010904/DTD/svg10.dtd">
<svg version="1.0" xmlns="http://www.w3.org/2000/svg"
 width="512.000000pt" height="512.000000pt" viewBox="0 0 512.000000 512.000000"
 preserveAspectRatio="xMidYMid meet">

<g transform="translate(0.000000,512.000000) scale(0.100000,-0.100000)"
fill="#000000" stroke="none">
<path d="M1830 3999 c-99 -12 -244 -48 -354 -86 -555 -193 -988 -681 -1115
-1258 -86 -392 -37 -787 144 -1150 172 -344 449 -617 798 -785 141 -68 257
-108 412 -141 98 -21 135 -24 340 -24 201 1 243 4 334 23 450 98 815 335 1077
698 78 108 193 335 234 462 113 352 113 733 0 1084 -36 110 -148 344 -159 332
-17 -19 -162 -216 -257 -349 -357 -499 -744 -1091 -1070 -1638 l-142 -238 -77
128 c-169 277 -599 904 -1022 1487 l-181 251 151 153 c84 84 156 150 162 148
5 -2 214 -146 464 -320 249 -174 463 -324 476 -332 22 -14 25 -12 111 98 235
299 489 589 796 910 l179 187 -53 39 c-219 161 -503 277 -775 316 -119 17
-359 20 -473 5z"/>
</g>
</svg>
